<svg width="764" height="348" viewBox="0 0 764 348" fill="none" xmlns="http://www.w3.org/2000/svg">
<path d="M68.796 47.4H90.6V93.062H142.108V47.4H163.912V158H142.108V112.022H90.6V158H68.796V47.4ZM248.219 132.246H206.823L197.027 158H174.275L217.567 47.4H227.363C234.209 47.4 238.844 50.56 241.267 56.88L280.609 158H257.857L248.219 132.246ZM212.669 113.918H242.373L227.679 74.102H227.521L212.669 113.918ZM321.386 159.264C309.799 159.264 300.741 156.051 294.21 149.626C287.679 143.095 284.414 134.037 284.414 122.45H305.902C305.902 127.927 307.271 132.246 310.01 135.406C312.854 138.461 316.751 139.988 321.702 139.988H339.24C343.875 139.988 347.614 139.04 350.458 137.144C353.407 135.143 354.882 132.509 354.882 129.244V123.872C354.882 118.711 351.09 115.498 343.506 114.234L314.434 109.336C304.954 107.756 297.739 104.754 292.788 100.33C287.943 95.8007 285.52 90.06 285.52 83.108V74.26C285.52 68.6773 286.995 63.7793 289.944 59.566C292.999 55.2473 297.265 51.9293 302.742 49.612C308.325 47.2947 314.75 46.136 322.018 46.136H339.872C346.719 46.136 352.775 47.558 358.042 50.402C363.309 53.246 367.364 57.2487 370.208 62.41C373.157 67.466 374.632 73.3647 374.632 80.106H353.144C353.144 75.682 351.933 72.1533 349.51 69.52C347.087 66.7813 343.875 65.412 339.872 65.412H322.018C317.594 65.412 314.013 66.36 311.274 68.256C308.641 70.152 307.324 72.68 307.324 75.84V80.106C307.324 85.3727 310.958 88.638 318.226 89.902L347.14 94.958C356.725 96.6433 364.046 99.6453 369.102 103.964C374.158 108.177 376.686 113.655 376.686 120.396V130.824C376.686 136.407 375.106 141.357 371.946 145.676C368.891 149.995 364.573 153.365 358.99 155.788C353.407 158.105 346.929 159.264 339.556 159.264H321.386ZM391.894 47.4H413.698V93.062H465.206V47.4H487.01V158H465.206V112.022H413.698V158H391.894V47.4ZM521.862 158C517.333 158 513.646 156.631 510.802 153.892C507.958 151.153 506.536 147.572 506.536 143.148V47.4H590.908V66.36H528.34V91.956H586.168V110.916H528.34V139.04H590.908V158H521.862ZM605.749 47.4H664.525C674.11 47.4 681.8 49.9807 687.593 55.142C693.492 60.3033 696.441 67.0973 696.441 75.524V86.584C696.441 92.0613 694.861 96.854 691.701 100.962C688.646 104.965 684.17 108.019 678.271 110.126V110.442C681.642 112.654 684.17 115.182 685.855 118.026C687.646 120.87 689.384 124.82 691.069 129.876L699.917 158H677.323L668.949 131.772C667.58 127.243 665.684 123.872 663.261 121.66C660.838 119.448 657.836 118.342 654.255 118.342H627.553V158H605.749V47.4ZM660.417 99.54C664.841 99.54 668.317 98.3813 670.845 96.064C673.373 93.6413 674.637 90.534 674.637 86.742V76.472C674.637 73.4173 673.689 70.9947 671.793 69.204C669.897 67.308 667.369 66.36 664.209 66.36H627.553V99.54H660.417Z" fill="#99D4E7"/>
<path d="M68.796 47.4H90.6V93.062H142.108V47.4H163.912V158H142.108V112.022H90.6V158H68.796V47.4ZM248.219 132.246H206.823L197.027 158H174.275L217.567 47.4H227.363C234.209 47.4 238.844 50.56 241.267 56.88L280.609 158H257.857L248.219 132.246ZM212.669 113.918H242.373L227.679 74.102H227.521L212.669 113.918ZM321.386 159.264C309.799 159.264 300.741 156.051 294.21 149.626C287.679 143.095 284.414 134.037 284.414 122.45H305.902C305.902 127.927 307.271 132.246 310.01 135.406C312.854 138.461 316.751 139.988 321.702 139.988H339.24C343.875 139.988 347.614 139.04 350.458 137.144C353.407 135.143 354.882 132.509 354.882 129.244V123.872C354.882 118.711 351.09 115.498 343.506 114.234L314.434 109.336C304.954 107.756 297.739 104.754 292.788 100.33C287.943 95.8007 285.52 90.06 285.52 83.108V74.26C285.52 68.6773 286.995 63.7793 289.944 59.566C292.999 55.2473 297.265 51.9293 302.742 49.612C308.325 47.2947 314.75 46.136 322.018 46.136H339.872C346.719 46.136 352.775 47.558 358.042 50.402C363.309 53.246 367.364 57.2487 370.208 62.41C373.157 67.466 374.632 73.3647 374.632 80.106H353.144C353.144 75.682 351.933 72.1533 349.51 69.52C347.087 66.7813 343.875 65.412 339.872 65.412H322.018C317.594 65.412 314.013 66.36 311.274 68.256C308.641 70.152 307.324 72.68 307.324 75.84V80.106C307.324 85.3727 310.958 88.638 318.226 89.902L347.14 94.958C356.725 96.6433 364.046 99.6453 369.102 103.964C374.158 108.177 376.686 113.655 376.686 120.396V130.824C376.686 136.407 375.106 141.357 371.946 145.676C368.891 149.995 364.573 153.365 358.99 155.788C353.407 158.105 346.929 159.264 339.556 159.264H321.386ZM391.894 47.4H413.698V93.062H465.206V47.4H487.01V158H465.206V112.022H413.698V158H391.894V47.4ZM521.862 158C517.333 158 513.646 156.631 510.802 153.892C507.958 151.153 506.536 147.572 506.536 143.148V47.4H590.908V66.36H528.34V91.956H586.168V110.916H528.34V139.04H590.908V158H521.862ZM605.749 47.4H664.525C674.11 47.4 681.8 49.9807 687.593 55.142C693.492 60.3033 696.441 67.0973 696.441 75.524V86.584C696.441 92.0613 694.861 96.854 691.701 100.962C688.646 104.965 684.17 108.019 678.271 110.126V110.442C681.642 112.654 684.17 115.182 685.855 118.026C687.646 120.87 689.384 124.82 691.069 129.876L699.917 158H677.323L668.949 131.772C667.58 127.243 665.684 123.872 663.261 121.66C660.838 119.448 657.836 118.342 654.255 118.342H627.553V158H605.749V47.4ZM660.417 99.54C664.841 99.54 668.317 98.3813 670.845 96.064C673.373 93.6413 674.637 90.534 674.637 86.742V76.472C674.637 73.4173 673.689 70.9947 671.793 69.204C669.897 67.308 667.369 66.36 664.209 66.36H627.553V99.54H660.417Z" fill="#ABB2BF"/>
<path d="M59 173.8H703.077V181.7H59V173.8Z" fill="#99D4E7"/>
<path d="M59 173.8H703.077V181.7H59V173.8Z" fill="#ABB2BF"/>
<path d="M9.88961 258C8.16961 258 6.76961 257.48 5.68961 256.44C4.60961 255.4 4.06961 254.04 4.06961 252.36V216H24.1096C27.3096 216 30.1096 216.6 32.5096 217.8C34.9496 219 36.8296 220.7 38.1496 222.9C39.5096 225.1 40.1896 227.64 40.1896 230.52V242.28C40.1896 247.44 38.8496 251.36 36.1696 254.04C33.4896 256.68 29.5496 258 24.3496 258H9.88961ZM24.1096 250.68C26.6696 250.68 28.6096 249.94 29.9296 248.46C31.2496 246.98 31.9096 244.8 31.9096 241.92V230.88C31.9096 228.6 31.1696 226.78 29.6896 225.42C28.2096 224.02 26.2696 223.32 23.8696 223.32H12.3496V250.68H24.1096ZM52.0185 258C50.2985 258 48.8985 257.48 47.8185 256.44C46.7385 255.4 46.1985 254.04 46.1985 252.36V216H78.2385V223.2H54.4785V232.92H76.4385V240.12H54.4785V250.8H78.2385V258H52.0185ZM99.8343 258C97.5143 258 95.8543 256.72 94.8543 254.16L80.3943 216H89.0343L100.074 247.5H100.194L111.294 216H119.874L103.734 258H99.8343ZM129.655 258C127.935 258 126.535 257.48 125.455 256.44C124.375 255.4 123.835 254.04 123.835 252.36V216H155.875V223.2H132.115V232.92H154.075V240.12H132.115V250.8H155.875V258H129.655ZM167.331 258C165.571 258 164.151 257.5 163.071 256.5C162.031 255.46 161.511 254.1 161.511 252.42V216H169.791V250.8H192.591V258H167.331ZM210.022 258.48C206.862 258.48 204.062 257.82 201.622 256.5C199.222 255.14 197.342 253.26 195.982 250.86C194.662 248.42 194.002 245.6 194.002 242.4V231.6C194.002 228.4 194.662 225.6 195.982 223.2C197.342 220.76 199.222 218.88 201.622 217.56C204.062 216.2 206.862 215.52 210.022 215.52H216.382C219.542 215.52 222.322 216.2 224.722 217.56C227.162 218.88 229.042 220.76 230.362 223.2C231.722 225.6 232.402 228.4 232.402 231.6V242.4C232.402 245.6 231.722 248.42 230.362 250.86C229.042 253.26 227.162 255.14 224.722 256.5C222.322 257.82 219.542 258.48 216.382 258.48H210.022ZM216.382 251.16C218.702 251.16 220.562 250.32 221.962 248.64C223.402 246.96 224.122 244.76 224.122 242.04V231.96C224.122 229.24 223.402 227.04 221.962 225.36C220.562 223.68 218.702 222.84 216.382 222.84H210.022C207.702 222.84 205.822 223.68 204.382 225.36C202.982 227.04 202.282 229.24 202.282 231.96V242.04C202.282 244.76 202.982 246.96 204.382 248.64C205.822 250.32 207.702 251.16 210.022 251.16H216.382ZM238.62 216H260.76C263.2 216 265.36 216.48 267.24 217.44C269.12 218.36 270.58 219.7 271.62 221.46C272.66 223.18 273.18 225.16 273.18 227.4V232.98C273.18 235.3 272.64 237.36 271.56 239.16C270.48 240.92 268.96 242.3 267 243.3C265.08 244.26 262.84 244.74 260.28 244.74H246.9V258H238.62V216ZM260.16 237.54C261.56 237.54 262.7 237.1 263.58 236.22C264.46 235.3 264.9 234.1 264.9 232.62V227.76C264.9 226.36 264.5 225.26 263.7 224.46C262.94 223.62 261.92 223.2 260.64 223.2H246.9V237.54H260.16ZM283.581 258C281.861 258 280.461 257.48 279.381 256.44C278.301 255.4 277.761 254.04 277.761 252.36V216H309.801V223.2H286.041V232.92H308.001V240.12H286.041V250.8H309.801V258H283.581ZM321.257 258C319.537 258 318.137 257.48 317.057 256.44C315.977 255.4 315.437 254.04 315.437 252.36V216H335.477C338.677 216 341.477 216.6 343.877 217.8C346.317 219 348.197 220.7 349.517 222.9C350.877 225.1 351.557 227.64 351.557 230.52V242.28C351.557 247.44 350.217 251.36 347.537 254.04C344.857 256.68 340.917 258 335.717 258H321.257ZM335.477 250.68C338.037 250.68 339.977 249.94 341.297 248.46C342.617 246.98 343.277 244.8 343.277 241.92V230.88C343.277 228.6 342.537 226.78 341.057 225.42C339.577 224.02 337.637 223.32 335.237 223.32H323.717V250.68H335.477ZM380.671 258C378.951 258 377.551 257.48 376.471 256.44C375.391 255.4 374.851 254.04 374.851 252.36V216H395.731C399.531 216 402.571 216.9 404.851 218.7C407.171 220.5 408.331 222.92 408.331 225.96V228.96C408.331 230.28 407.991 231.54 407.311 232.74C406.671 233.94 405.751 234.92 404.551 235.68V235.74C406.471 236.42 408.011 237.52 409.171 239.04C410.371 240.56 410.971 242.26 410.971 244.14V247.26C410.971 250.54 409.771 253.16 407.371 255.12C405.011 257.04 401.811 258 397.771 258H380.671ZM395.731 233.4C397.011 233.4 398.051 233 398.851 232.2C399.651 231.36 400.051 230.26 400.051 228.9V226.86C400.051 225.74 399.631 224.86 398.791 224.22C397.951 223.54 396.831 223.2 395.431 223.2H383.131V233.4H395.731ZM397.171 250.8C398.931 250.8 400.291 250.46 401.251 249.78C402.211 249.06 402.691 248.06 402.691 246.78V244.14C402.691 242.98 402.271 242.04 401.431 241.32C400.591 240.6 399.471 240.24 398.071 240.24H383.131V250.8H397.171ZM426.043 241.68L410.503 216H419.503L430.183 234.06L440.863 216H449.863L434.323 241.68V258H426.043V241.68ZM470.769 216H492.909C495.349 216 497.509 216.48 499.389 217.44C501.269 218.36 502.729 219.7 503.769 221.46C504.809 223.18 505.329 225.16 505.329 227.4V232.98C505.329 235.3 504.789 237.36 503.709 239.16C502.629 240.92 501.109 242.3 499.149 243.3C497.229 244.26 494.989 244.74 492.429 244.74H479.049V258H470.769V216ZM492.309 237.54C493.709 237.54 494.849 237.1 495.729 236.22C496.609 235.3 497.049 234.1 497.049 232.62V227.76C497.049 226.36 496.649 225.26 495.849 224.46C495.089 223.62 494.069 223.2 492.789 223.2H479.049V237.54H492.309ZM509.909 216H532.229C535.869 216 538.789 216.98 540.989 218.94C543.229 220.9 544.349 223.48 544.349 226.68V230.88C544.349 232.96 543.749 234.78 542.549 236.34C541.389 237.86 539.689 239.02 537.449 239.82V239.94C538.729 240.78 539.689 241.74 540.329 242.82C541.009 243.9 541.669 245.4 542.309 247.32L545.669 258H537.089L533.909 248.04C533.389 246.32 532.669 245.04 531.749 244.2C530.829 243.36 529.689 242.94 528.329 242.94H518.189V258H509.909V216ZM530.669 235.8C532.349 235.8 533.669 235.36 534.629 234.48C535.589 233.56 536.069 232.38 536.069 230.94V227.04C536.069 225.88 535.709 224.96 534.989 224.28C534.269 223.56 533.309 223.2 532.109 223.2H518.189V235.8H530.669ZM551.174 216H559.454V258H551.174V216ZM579.207 241.68L563.667 216H572.667L583.347 234.06L594.027 216H603.027L587.487 241.68V258H579.207V241.68ZM625.154 248.22H609.434L605.714 258H597.074L613.514 216H617.234C619.834 216 621.594 217.2 622.514 219.6L637.454 258H628.814L625.154 248.22ZM611.654 241.26H622.934L617.354 226.14H617.294L611.654 241.26ZM641.394 216H648.774L668.934 244.56V216H677.034V258H669.654L649.494 229.44V258H641.394V216ZM697.06 258.48C692.66 258.48 689.22 257.26 686.74 254.82C684.26 252.34 683.02 248.9 683.02 244.5H691.18C691.18 246.58 691.7 248.22 692.74 249.42C693.82 250.58 695.3 251.16 697.18 251.16H703.84C705.6 251.16 707.02 250.8 708.1 250.08C709.22 249.32 709.78 248.32 709.78 247.08V245.04C709.78 243.08 708.34 241.86 705.46 241.38L694.42 239.52C690.82 238.92 688.08 237.78 686.2 236.1C684.36 234.38 683.44 232.2 683.44 229.56V226.2C683.44 224.08 684 222.22 685.12 220.62C686.28 218.98 687.9 217.72 689.98 216.84C692.1 215.96 694.54 215.52 697.3 215.52H704.08C706.68 215.52 708.98 216.06 710.98 217.14C712.98 218.22 714.52 219.74 715.6 221.7C716.72 223.62 717.28 225.86 717.28 228.42H709.12C709.12 226.74 708.66 225.4 707.74 224.4C706.82 223.36 705.6 222.84 704.08 222.84H697.3C695.62 222.84 694.26 223.2 693.22 223.92C692.22 224.64 691.72 225.6 691.72 226.8V228.42C691.72 230.42 693.1 231.66 695.86 232.14L706.84 234.06C710.48 234.7 713.26 235.84 715.18 237.48C717.1 239.08 718.06 241.16 718.06 243.72V247.68C718.06 249.8 717.46 251.68 716.26 253.32C715.1 254.96 713.46 256.24 711.34 257.16C709.22 258.04 706.76 258.48 703.96 258.48H697.06ZM723.835 216H732.115V233.34H751.675V216H759.955V258H751.675V240.54H732.115V258H723.835V216ZM152.412 333.48C149.332 333.48 146.612 332.82 144.252 331.5C141.932 330.18 140.132 328.32 138.852 325.92C137.572 323.48 136.932 320.68 136.932 317.52V306.48C136.932 303.32 137.572 300.54 138.852 298.14C140.172 295.7 142.012 293.82 144.372 292.5C146.772 291.18 149.532 290.52 152.652 290.52H159.012C162.012 290.52 164.652 291.16 166.932 292.44C169.212 293.72 170.972 295.52 172.212 297.84C173.492 300.12 174.132 302.78 174.132 305.82H165.972C165.972 303.42 165.332 301.5 164.052 300.06C162.772 298.58 161.092 297.84 159.012 297.84H152.652C150.412 297.84 148.612 298.68 147.252 300.36C145.892 302 145.212 304.16 145.212 306.84V317.16C145.212 319.84 145.872 322.02 147.192 323.7C148.512 325.34 150.252 326.16 152.412 326.16H158.892C161.012 326.16 162.732 325.34 164.052 323.7C165.412 322.06 166.092 319.9 166.092 317.22H174.252C174.252 320.46 173.612 323.32 172.332 325.8C171.052 328.24 169.252 330.14 166.932 331.5C164.612 332.82 161.932 333.48 158.892 333.48H152.412ZM194.261 333.48C191.101 333.48 188.301 332.82 185.861 331.5C183.461 330.14 181.581 328.26 180.221 325.86C178.901 323.42 178.241 320.6 178.241 317.4V306.6C178.241 303.4 178.901 300.6 180.221 298.2C181.581 295.76 183.461 293.88 185.861 292.56C188.301 291.2 191.101 290.52 194.261 290.52H200.621C203.781 290.52 206.561 291.2 208.961 292.56C211.401 293.88 213.281 295.76 214.601 298.2C215.961 300.6 216.641 303.4 216.641 306.6V317.4C216.641 320.6 215.961 323.42 214.601 325.86C213.281 328.26 211.401 330.14 208.961 331.5C206.561 332.82 203.781 333.48 200.621 333.48H194.261ZM200.621 326.16C202.941 326.16 204.801 325.32 206.201 323.64C207.641 321.96 208.361 319.76 208.361 317.04V306.96C208.361 304.24 207.641 302.04 206.201 300.36C204.801 298.68 202.941 297.84 200.621 297.84H194.261C191.941 297.84 190.061 298.68 188.621 300.36C187.221 302.04 186.521 304.24 186.521 306.96V317.04C186.521 319.76 187.221 321.96 188.621 323.64C190.061 325.32 191.941 326.16 194.261 326.16H200.621ZM228.679 333C226.959 333 225.559 332.48 224.479 331.44C223.399 330.4 222.859 329.04 222.859 327.36V291H242.899C246.099 291 248.899 291.6 251.299 292.8C253.739 294 255.619 295.7 256.939 297.9C258.299 300.1 258.979 302.64 258.979 305.52V317.28C258.979 322.44 257.639 326.36 254.959 329.04C252.279 331.68 248.339 333 243.139 333H228.679ZM242.899 325.68C245.459 325.68 247.399 324.94 248.719 323.46C250.039 321.98 250.699 319.8 250.699 316.92V305.88C250.699 303.6 249.959 301.78 248.479 300.42C246.999 299.02 245.059 298.32 242.659 298.32H231.139V325.68H242.899ZM270.808 333C269.088 333 267.688 332.48 266.608 331.44C265.528 330.4 264.988 329.04 264.988 327.36V291H297.028V298.2H273.268V307.92H295.228V315.12H273.268V325.8H297.028V333H270.808ZM302.663 291H310.043L330.203 319.56V291H338.303V333H330.923L310.763 304.44V333H302.663V291ZM370.33 323.22H354.61L350.89 333H342.25L358.69 291H362.41C365.01 291 366.77 292.2 367.69 294.6L382.63 333H373.99L370.33 323.22ZM356.83 316.26H368.11L362.53 301.14H362.47L356.83 316.26ZM386.57 291H393.95L407.69 315.96L421.13 291H428.51V333H420.41V306.42L411.59 322.38C410.99 323.46 410.37 324.24 409.73 324.72C409.13 325.16 408.43 325.38 407.63 325.38H405.35L394.67 306.42V333H386.57V291ZM441.784 333C440.064 333 438.664 332.48 437.584 331.44C436.504 330.4 435.964 329.04 435.964 327.36V291H468.004V298.2H444.244V307.92H466.204V315.12H444.244V325.8H468.004V333H441.784ZM477.12 312.9C475.64 312.9 474.44 312.46 473.52 311.58C472.64 310.66 472.2 309.46 472.2 307.98C472.2 306.5 472.64 305.32 473.52 304.44C474.44 303.52 475.64 303.06 477.12 303.06C478.6 303.06 479.78 303.52 480.66 304.44C481.58 305.32 482.04 306.5 482.04 307.98C482.04 309.46 481.58 310.66 480.66 311.58C479.78 312.46 478.6 312.9 477.12 312.9ZM477.12 332.52C475.64 332.52 474.44 332.08 473.52 331.2C472.64 330.28 472.2 329.08 472.2 327.6C472.2 326.12 472.64 324.94 473.52 324.06C474.44 323.14 475.64 322.68 477.12 322.68C478.6 322.68 479.78 323.14 480.66 324.06C481.58 324.94 482.04 326.12 482.04 327.6C482.04 329.08 481.58 330.28 480.66 331.2C479.78 332.08 478.6 332.52 477.12 332.52ZM505.339 291H536.779V298.2H513.619V309.48H534.559V316.68H513.619V333H505.339V291ZM548.57 300L538.91 304.86V297.18L550.55 291H556.85V333H548.57V300ZM569.256 330.12C569.256 328.24 569.476 326.3 569.916 324.3C570.396 322.26 571.056 320.4 571.896 318.72L582.336 298.32H561.036V291H591.996V295.74L580.056 320.04C579.256 321.68 578.636 323.4 578.196 325.2C577.756 327 577.536 328.64 577.536 330.12V333H569.256V330.12ZM607.568 333.48C603.408 333.48 600.168 332.3 597.848 329.94C595.528 327.58 594.368 324.3 594.368 320.1H602.528C602.528 321.98 602.968 323.46 603.848 324.54C604.728 325.62 605.968 326.16 607.568 326.16H613.328C615.088 326.16 616.488 325.68 617.528 324.72C618.608 323.76 619.148 322.48 619.148 320.88V317.64C619.148 316.24 618.588 315.1 617.468 314.22C616.388 313.34 614.948 312.9 613.148 312.9H595.808V291H625.868V298.32H604.088V305.58H613.148C615.988 305.58 618.488 306.08 620.648 307.08C622.808 308.08 624.468 309.5 625.628 311.34C626.828 313.14 627.428 315.24 627.428 317.64V320.88C627.428 323.36 626.828 325.56 625.628 327.48C624.468 329.4 622.828 330.88 620.708 331.92C618.588 332.96 616.128 333.48 613.328 333.48H607.568Z" fill="#99D4E7"/>
<path d="M9.88961 258C8.16961 258 6.76961 257.48 5.68961 256.44C4.60961 255.4 4.06961 254.04 4.06961 252.36V216H24.1096C27.3096 216 30.1096 216.6 32.5096 217.8C34.9496 219 36.8296 220.7 38.1496 222.9C39.5096 225.1 40.1896 227.64 40.1896 230.52V242.28C40.1896 247.44 38.8496 251.36 36.1696 254.04C33.4896 256.68 29.5496 258 24.3496 258H9.88961ZM24.1096 250.68C26.6696 250.68 28.6096 249.94 29.9296 248.46C31.2496 246.98 31.9096 244.8 31.9096 241.92V230.88C31.9096 228.6 31.1696 226.78 29.6896 225.42C28.2096 224.02 26.2696 223.32 23.8696 223.32H12.3496V250.68H24.1096ZM52.0185 258C50.2985 258 48.8985 257.48 47.8185 256.44C46.7385 255.4 46.1985 254.04 46.1985 252.36V216H78.2385V223.2H54.4785V232.92H76.4385V240.12H54.4785V250.8H78.2385V258H52.0185ZM99.8343 258C97.5143 258 95.8543 256.72 94.8543 254.16L80.3943 216H89.0343L100.074 247.5H100.194L111.294 216H119.874L103.734 258H99.8343ZM129.655 258C127.935 258 126.535 257.48 125.455 256.44C124.375 255.4 123.835 254.04 123.835 252.36V216H155.875V223.2H132.115V232.92H154.075V240.12H132.115V250.8H155.875V258H129.655ZM167.331 258C165.571 258 164.151 257.5 163.071 256.5C162.031 255.46 161.511 254.1 161.511 252.42V216H169.791V250.8H192.591V258H167.331ZM210.022 258.48C206.862 258.48 204.062 257.82 201.622 256.5C199.222 255.14 197.342 253.26 195.982 250.86C194.662 248.42 194.002 245.6 194.002 242.4V231.6C194.002 228.4 194.662 225.6 195.982 223.2C197.342 220.76 199.222 218.88 201.622 217.56C204.062 216.2 206.862 215.52 210.022 215.52H216.382C219.542 215.52 222.322 216.2 224.722 217.56C227.162 218.88 229.042 220.76 230.362 223.2C231.722 225.6 232.402 228.4 232.402 231.6V242.4C232.402 245.6 231.722 248.42 230.362 250.86C229.042 253.26 227.162 255.14 224.722 256.5C222.322 257.82 219.542 258.48 216.382 258.48H210.022ZM216.382 251.16C218.702 251.16 220.562 250.32 221.962 248.64C223.402 246.96 224.122 244.76 224.122 242.04V231.96C224.122 229.24 223.402 227.04 221.962 225.36C220.562 223.68 218.702 222.84 216.382 222.84H210.022C207.702 222.84 205.822 223.68 204.382 225.36C202.982 227.04 202.282 229.24 202.282 231.96V242.04C202.282 244.76 202.982 246.96 204.382 248.64C205.822 250.32 207.702 251.16 210.022 251.16H216.382ZM238.62 216H260.76C263.2 216 265.36 216.48 267.24 217.44C269.12 218.36 270.58 219.7 271.62 221.46C272.66 223.18 273.18 225.16 273.18 227.4V232.98C273.18 235.3 272.64 237.36 271.56 239.16C270.48 240.92 268.96 242.3 267 243.3C265.08 244.26 262.84 244.74 260.28 244.74H246.9V258H238.62V216ZM260.16 237.54C261.56 237.54 262.7 237.1 263.58 236.22C264.46 235.3 264.9 234.1 264.9 232.62V227.76C264.9 226.36 264.5 225.26 263.7 224.46C262.94 223.62 261.92 223.2 260.64 223.2H246.9V237.54H260.16ZM283.581 258C281.861 258 280.461 257.48 279.381 256.44C278.301 255.4 277.761 254.04 277.761 252.36V216H309.801V223.2H286.041V232.92H308.001V240.12H286.041V250.8H309.801V258H283.581ZM321.257 258C319.537 258 318.137 257.48 317.057 256.44C315.977 255.4 315.437 254.04 315.437 252.36V216H335.477C338.677 216 341.477 216.6 343.877 217.8C346.317 219 348.197 220.7 349.517 222.9C350.877 225.1 351.557 227.64 351.557 230.52V242.28C351.557 247.44 350.217 251.36 347.537 254.04C344.857 256.68 340.917 258 335.717 258H321.257ZM335.477 250.68C338.037 250.68 339.977 249.94 341.297 248.46C342.617 246.98 343.277 244.8 343.277 241.92V230.88C343.277 228.6 342.537 226.78 341.057 225.42C339.577 224.02 337.637 223.32 335.237 223.32H323.717V250.68H335.477ZM380.671 258C378.951 258 377.551 257.48 376.471 256.44C375.391 255.4 374.851 254.04 374.851 252.36V216H395.731C399.531 216 402.571 216.9 404.851 218.7C407.171 220.5 408.331 222.92 408.331 225.96V228.96C408.331 230.28 407.991 231.54 407.311 232.74C406.671 233.94 405.751 234.92 404.551 235.68V235.74C406.471 236.42 408.011 237.52 409.171 239.04C410.371 240.56 410.971 242.26 410.971 244.14V247.26C410.971 250.54 409.771 253.16 407.371 255.12C405.011 257.04 401.811 258 397.771 258H380.671ZM395.731 233.4C397.011 233.4 398.051 233 398.851 232.2C399.651 231.36 400.051 230.26 400.051 228.9V226.86C400.051 225.74 399.631 224.86 398.791 224.22C397.951 223.54 396.831 223.2 395.431 223.2H383.131V233.4H395.731ZM397.171 250.8C398.931 250.8 400.291 250.46 401.251 249.78C402.211 249.06 402.691 248.06 402.691 246.78V244.14C402.691 242.98 402.271 242.04 401.431 241.32C400.591 240.6 399.471 240.24 398.071 240.24H383.131V250.8H397.171ZM426.043 241.68L410.503 216H419.503L430.183 234.06L440.863 216H449.863L434.323 241.68V258H426.043V241.68ZM470.769 216H492.909C495.349 216 497.509 216.48 499.389 217.44C501.269 218.36 502.729 219.7 503.769 221.46C504.809 223.18 505.329 225.16 505.329 227.4V232.98C505.329 235.3 504.789 237.36 503.709 239.16C502.629 240.92 501.109 242.3 499.149 243.3C497.229 244.26 494.989 244.74 492.429 244.74H479.049V258H470.769V216ZM492.309 237.54C493.709 237.54 494.849 237.1 495.729 236.22C496.609 235.3 497.049 234.1 497.049 232.62V227.76C497.049 226.36 496.649 225.26 495.849 224.46C495.089 223.62 494.069 223.2 492.789 223.2H479.049V237.54H492.309ZM509.909 216H532.229C535.869 216 538.789 216.98 540.989 218.94C543.229 220.9 544.349 223.48 544.349 226.68V230.88C544.349 232.96 543.749 234.78 542.549 236.34C541.389 237.86 539.689 239.02 537.449 239.82V239.94C538.729 240.78 539.689 241.74 540.329 242.82C541.009 243.9 541.669 245.4 542.309 247.32L545.669 258H537.089L533.909 248.04C533.389 246.32 532.669 245.04 531.749 244.2C530.829 243.36 529.689 242.94 528.329 242.94H518.189V258H509.909V216ZM530.669 235.8C532.349 235.8 533.669 235.36 534.629 234.48C535.589 233.56 536.069 232.38 536.069 230.94V227.04C536.069 225.88 535.709 224.96 534.989 224.28C534.269 223.56 533.309 223.2 532.109 223.2H518.189V235.8H530.669ZM551.174 216H559.454V258H551.174V216ZM579.207 241.68L563.667 216H572.667L583.347 234.06L594.027 216H603.027L587.487 241.68V258H579.207V241.68ZM625.154 248.22H609.434L605.714 258H597.074L613.514 216H617.234C619.834 216 621.594 217.2 622.514 219.6L637.454 258H628.814L625.154 248.22ZM611.654 241.26H622.934L617.354 226.14H617.294L611.654 241.26ZM641.394 216H648.774L668.934 244.56V216H677.034V258H669.654L649.494 229.44V258H641.394V216ZM697.06 258.48C692.66 258.48 689.22 257.26 686.74 254.82C684.26 252.34 683.02 248.9 683.02 244.5H691.18C691.18 246.58 691.7 248.22 692.74 249.42C693.82 250.58 695.3 251.16 697.18 251.16H703.84C705.6 251.16 707.02 250.8 708.1 250.08C709.22 249.32 709.78 248.32 709.78 247.08V245.04C709.78 243.08 708.34 241.86 705.46 241.38L694.42 239.52C690.82 238.92 688.08 237.78 686.2 236.1C684.36 234.38 683.44 232.2 683.44 229.56V226.2C683.44 224.08 684 222.22 685.12 220.62C686.28 218.98 687.9 217.72 689.98 216.84C692.1 215.96 694.54 215.52 697.3 215.52H704.08C706.68 215.52 708.98 216.06 710.98 217.14C712.98 218.22 714.52 219.74 715.6 221.7C716.72 223.62 717.28 225.86 717.28 228.42H709.12C709.12 226.74 708.66 225.4 707.74 224.4C706.82 223.36 705.6 222.84 704.08 222.84H697.3C695.62 222.84 694.26 223.2 693.22 223.92C692.22 224.64 691.72 225.6 691.72 226.8V228.42C691.72 230.42 693.1 231.66 695.86 232.14L706.84 234.06C710.48 234.7 713.26 235.84 715.18 237.48C717.1 239.08 718.06 241.16 718.06 243.72V247.68C718.06 249.8 717.46 251.68 716.26 253.32C715.1 254.96 713.46 256.24 711.34 257.16C709.22 258.04 706.76 258.48 703.96 258.48H697.06ZM723.835 216H732.115V233.34H751.675V216H759.955V258H751.675V240.54H732.115V258H723.835V216ZM152.412 333.48C149.332 333.48 146.612 332.82 144.252 331.5C141.932 330.18 140.132 328.32 138.852 325.92C137.572 323.48 136.932 320.68 136.932 317.52V306.48C136.932 303.32 137.572 300.54 138.852 298.14C140.172 295.7 142.012 293.82 144.372 292.5C146.772 291.18 149.532 290.52 152.652 290.52H159.012C162.012 290.52 164.652 291.16 166.932 292.44C169.212 293.72 170.972 295.52 172.212 297.84C173.492 300.12 174.132 302.78 174.132 305.82H165.972C165.972 303.42 165.332 301.5 164.052 300.06C162.772 298.58 161.092 297.84 159.012 297.84H152.652C150.412 297.84 148.612 298.68 147.252 300.36C145.892 302 145.212 304.16 145.212 306.84V317.16C145.212 319.84 145.872 322.02 147.192 323.7C148.512 325.34 150.252 326.16 152.412 326.16H158.892C161.012 326.16 162.732 325.34 164.052 323.7C165.412 322.06 166.092 319.9 166.092 317.22H174.252C174.252 320.46 173.612 323.32 172.332 325.8C171.052 328.24 169.252 330.14 166.932 331.5C164.612 332.82 161.932 333.48 158.892 333.48H152.412ZM194.261 333.48C191.101 333.48 188.301 332.82 185.861 331.5C183.461 330.14 181.581 328.26 180.221 325.86C178.901 323.42 178.241 320.6 178.241 317.4V306.6C178.241 303.4 178.901 300.6 180.221 298.2C181.581 295.76 183.461 293.88 185.861 292.56C188.301 291.2 191.101 290.52 194.261 290.52H200.621C203.781 290.52 206.561 291.2 208.961 292.56C211.401 293.88 213.281 295.76 214.601 298.2C215.961 300.6 216.641 303.4 216.641 306.6V317.4C216.641 320.6 215.961 323.42 214.601 325.86C213.281 328.26 211.401 330.14 208.961 331.5C206.561 332.82 203.781 333.48 200.621 333.48H194.261ZM200.621 326.16C202.941 326.16 204.801 325.32 206.201 323.64C207.641 321.96 208.361 319.76 208.361 317.04V306.96C208.361 304.24 207.641 302.04 206.201 300.36C204.801 298.68 202.941 297.84 200.621 297.84H194.261C191.941 297.84 190.061 298.68 188.621 300.36C187.221 302.04 186.521 304.24 186.521 306.96V317.04C186.521 319.76 187.221 321.96 188.621 323.64C190.061 325.32 191.941 326.16 194.261 326.16H200.621ZM228.679 333C226.959 333 225.559 332.48 224.479 331.44C223.399 330.4 222.859 329.04 222.859 327.36V291H242.899C246.099 291 248.899 291.6 251.299 292.8C253.739 294 255.619 295.7 256.939 297.9C258.299 300.1 258.979 302.64 258.979 305.52V317.28C258.979 322.44 257.639 326.36 254.959 329.04C252.279 331.68 248.339 333 243.139 333H228.679ZM242.899 325.68C245.459 325.68 247.399 324.94 248.719 323.46C250.039 321.98 250.699 319.8 250.699 316.92V305.88C250.699 303.6 249.959 301.78 248.479 300.42C246.999 299.02 245.059 298.32 242.659 298.32H231.139V325.68H242.899ZM270.808 333C269.088 333 267.688 332.48 266.608 331.44C265.528 330.4 264.988 329.04 264.988 327.36V291H297.028V298.2H273.268V307.92H295.228V315.12H273.268V325.8H297.028V333H270.808ZM302.663 291H310.043L330.203 319.56V291H338.303V333H330.923L310.763 304.44V333H302.663V291ZM370.33 323.22H354.61L350.89 333H342.25L358.69 291H362.41C365.01 291 366.77 292.2 367.69 294.6L382.63 333H373.99L370.33 323.22ZM356.83 316.26H368.11L362.53 301.14H362.47L356.83 316.26ZM386.57 291H393.95L407.69 315.96L421.13 291H428.51V333H420.41V306.42L411.59 322.38C410.99 323.46 410.37 324.24 409.73 324.72C409.13 325.16 408.43 325.38 407.63 325.38H405.35L394.67 306.42V333H386.57V291ZM441.784 333C440.064 333 438.664 332.48 437.584 331.44C436.504 330.4 435.964 329.04 435.964 327.36V291H468.004V298.2H444.244V307.92H466.204V315.12H444.244V325.8H468.004V333H441.784ZM477.12 312.9C475.64 312.9 474.44 312.46 473.52 311.58C472.64 310.66 472.2 309.46 472.2 307.98C472.2 306.5 472.64 305.32 473.52 304.44C474.44 303.52 475.64 303.06 477.12 303.06C478.6 303.06 479.78 303.52 480.66 304.44C481.58 305.32 482.04 306.5 482.04 307.98C482.04 309.46 481.58 310.66 480.66 311.58C479.78 312.46 478.6 312.9 477.12 312.9ZM477.12 332.52C475.64 332.52 474.44 332.08 473.52 331.2C472.64 330.28 472.2 329.08 472.2 327.6C472.2 326.12 472.64 324.94 473.52 324.06C474.44 323.14 475.64 322.68 477.12 322.68C478.6 322.68 479.78 323.14 480.66 324.06C481.58 324.94 482.04 326.12 482.04 327.6C482.04 329.08 481.58 330.28 480.66 331.2C479.78 332.08 478.6 332.52 477.12 332.52ZM505.339 291H536.779V298.2H513.619V309.48H534.559V316.68H513.619V333H505.339V291ZM548.57 300L538.91 304.86V297.18L550.55 291H556.85V333H548.57V300ZM569.256 330.12C569.256 328.24 569.476 326.3 569.916 324.3C570.396 322.26 571.056 320.4 571.896 318.72L582.336 298.32H561.036V291H591.996V295.74L580.056 320.04C579.256 321.68 578.636 323.4 578.196 325.2C577.756 327 577.536 328.64 577.536 330.12V333H569.256V330.12ZM607.568 333.48C603.408 333.48 600.168 332.3 597.848 329.94C595.528 327.58 594.368 324.3 594.368 320.1H602.528C602.528 321.98 602.968 323.46 603.848 324.54C604.728 325.62 605.968 326.16 607.568 326.16H613.328C615.088 326.16 616.488 325.68 617.528 324.72C618.608 323.76 619.148 322.48 619.148 320.88V317.64C619.148 316.24 618.588 315.1 617.468 314.22C616.388 313.34 614.948 312.9 613.148 312.9H595.808V291H625.868V298.32H604.088V305.58H613.148C615.988 305.58 618.488 306.08 620.648 307.08C622.808 308.08 624.468 309.5 625.628 311.34C626.828 313.14 627.428 315.24 627.428 317.64V320.88C627.428 323.36 626.828 325.56 625.628 327.48C624.468 329.4 622.828 330.88 620.708 331.92C618.588 332.96 616.128 333.48 613.328 333.48H607.568Z" fill="#ABB2BF"/>
</svg>
